<?xml version="1.0" standalone="no"?>
<!DOCTYPE svg PUBLIC "-//W3C//DTD SVG 20010904//EN"
 "http://www.w3.org/TR/2001/REC-SVG-20010904/DTD/svg10.dtd">
<svg version="1.0" xmlns="http://www.w3.org/2000/svg"
 width="64.000000pt" height="64.000000pt" viewBox="0 0 64.000000 64.000000"
 preserveAspectRatio="xMidYMid meet">

<g transform="translate(0.000000,64.000000) scale(0.100000,-0.100000)"
fill="#000000" stroke="none">
<path d="M474 581 c-18 -11 -35 -24 -38 -30 -4 -7 -42 -11 -90 -11 -91 0 -110
-10 -104 -52 4 -27 49 -52 78 -43 26 8 26 25 1 25 -30 0 -51 11 -51 26 0 11
19 14 88 14 84 0 88 1 115 30 51 54 127 27 127 -45 0 -68 -75 -99 -121 -50
-17 18 -35 25 -62 25 -42 0 -48 -22 -8 -28 12 -2 38 -14 58 -28 41 -28 72 -30
113 -9 37 19 50 43 50 90 0 47 -13 71 -50 90 -39 20 -69 19 -106 -4z"/>
<path d="M515 511 c-6 -20 3 -51 15 -51 13 0 21 35 14 54 -8 21 -21 20 -29 -3z"/>
<path d="M225 343 c-57 -13 -178 -68 -195 -90 -20 -26 -36 -118 -25 -152 5
-16 15 -21 40 -21 28 0 37 -6 49 -29 17 -33 34 -41 82 -41 60 0 98 62 74 121
-15 35 -37 49 -79 49 -43 0 -60 -9 -77 -41 -8 -17 -23 -29 -34 -29 -18 0 -20
7 -20 59 0 67 6 75 84 107 l51 20 31 -31 c38 -38 70 -45 212 -45 83 0 110 -4
142 -20 35 -18 40 -25 40 -55 0 -19 -4 -35 -10 -35 -5 0 -10 5 -10 10 0 6 -11
22 -25 35 -55 56 -145 16 -145 -63 0 -51 34 -84 85 -84 38 0 85 33 85 59 0 7
11 13 24 13 16 0 27 7 31 20 9 28 -4 86 -23 103 -10 8 -75 41 -147 75 -123 57
-193 76 -240 65z m-13 -210 c22 -20 23 -51 1 -75 -32 -36 -103 -12 -103 35 0
49 64 75 102 40z m326 5 c7 -7 12 -26 12 -43 0 -39 -16 -55 -55 -55 -39 0 -55
16 -55 55 0 17 5 36 12 43 16 16 70 16 86 0z"/>
</g>
</svg>
